<svg width="17" height="17" viewBox="0 0 17 17" fill="none" xmlns="http://www.w3.org/2000/svg">
<g clip-path="url(#clip0_311_1342)">
<path opacity="0.4" d="M15.1206 11.627V1.12695C15.1206 0.711328 14.7862 0.376953 14.3706 0.376953H4.12061C2.46436 0.376953 1.12061 1.7207 1.12061 3.37695V13.377C1.12061 15.0332 2.46436 16.377 4.12061 16.377H14.3706C14.7862 16.377 15.1206 16.0426 15.1206 15.627V15.127C15.1206 14.8926 15.0112 14.6801 14.8425 14.5426C14.7112 14.0613 14.7112 12.6895 14.8425 12.2082C15.0112 12.0738 15.1206 11.8613 15.1206 11.627ZM5.12061 4.56445C5.12061 4.46133 5.20498 4.37695 5.30811 4.37695H11.9331C12.0362 4.37695 12.1206 4.46133 12.1206 4.56445V5.18945C12.1206 5.29258 12.0362 5.37695 11.9331 5.37695H5.30811C5.20498 5.37695 5.12061 5.29258 5.12061 5.18945V4.56445ZM5.12061 6.56445C5.12061 6.46133 5.20498 6.37695 5.30811 6.37695H11.9331C12.0362 6.37695 12.1206 6.46133 12.1206 6.56445V7.18945C12.1206 7.29258 12.0362 7.37695 11.9331 7.37695H5.30811C5.20498 7.37695 5.12061 7.29258 5.12061 7.18945V6.56445ZM13.0394 14.377H4.12061C3.56748 14.377 3.12061 13.9301 3.12061 13.377C3.12061 12.827 3.57061 12.377 4.12061 12.377H13.0394C12.98 12.9113 12.98 13.8426 13.0394 14.377Z" fill="#9FA2B4"/>
</g>
<defs>
<clipPath id="clip0_311_1342">
<rect width="16" height="16" fill="white" transform="translate(0.120605 0.376953)"/>
</clipPath>
</defs>
</svg>
