<svg width="17" height="17" viewBox="0 0 17 17" fill="none" xmlns="http://www.w3.org/2000/svg">
<g clip-path="url(#clip0_311_1334)">
<path opacity="0.4" d="M2.52061 7.57734C3.40311 7.57734 4.12061 6.85984 4.12061 5.97734C4.12061 5.09484 3.40311 4.37734 2.52061 4.37734C1.63811 4.37734 0.920605 5.09484 0.920605 5.97734C0.920605 6.85984 1.63811 7.57734 2.52061 7.57734ZM13.7206 7.57734C14.6031 7.57734 15.3206 6.85984 15.3206 5.97734C15.3206 5.09484 14.6031 4.37734 13.7206 4.37734C12.8381 4.37734 12.1206 5.09484 12.1206 5.97734C12.1206 6.85984 12.8381 7.57734 13.7206 7.57734ZM14.5206 8.37734H12.9206C12.4806 8.37734 12.0831 8.55484 11.7931 8.84234C12.8006 9.39484 13.5156 10.3923 13.6706 11.5773H15.3206C15.7631 11.5773 16.1206 11.2198 16.1206 10.7773V9.97734C16.1206 9.09484 15.4031 8.37734 14.5206 8.37734ZM8.12061 8.37734C9.66811 8.37734 10.9206 7.12484 10.9206 5.57734C10.9206 4.02984 9.66811 2.77734 8.12061 2.77734C6.57311 2.77734 5.32061 4.02984 5.32061 5.57734C5.32061 7.12484 6.57311 8.37734 8.12061 8.37734ZM10.0406 9.17734H9.83311C9.31311 9.42734 8.73561 9.57734 8.12061 9.57734C7.50561 9.57734 6.93061 9.42734 6.40811 9.17734H6.20061C4.61061 9.17734 3.32061 10.4673 3.32061 12.0573V12.7773C3.32061 13.4398 3.85811 13.9773 4.52061 13.9773H11.7206C12.3831 13.9773 12.9206 13.4398 12.9206 12.7773V12.0573C12.9206 10.4673 11.6306 9.17734 10.0406 9.17734ZM4.44811 8.84234C4.15811 8.55484 3.76061 8.37734 3.32061 8.37734H1.72061C0.838105 8.37734 0.120605 9.09484 0.120605 9.97734V10.7773C0.120605 11.2198 0.478105 11.5773 0.920605 11.5773H2.56811C2.72561 10.3923 3.44061 9.39484 4.44811 8.84234Z" fill="#9FA2B4"/>
</g>
<defs>
<clipPath id="clip0_311_1334">
<rect width="16" height="16" fill="white" transform="translate(0.120605 0.376953)"/>
</clipPath>
</defs>
</svg>
