<svg width="17" height="17" viewBox="0 0 17 17" fill="none" xmlns="http://www.w3.org/2000/svg">
<g clip-path="url(#clip0_311_1330)">
<path opacity="0.4" d="M5.62248 14.5754C5.62279 14.772 5.68092 14.9645 5.78998 15.1282L6.32404 15.931C6.41528 16.0683 6.53902 16.1808 6.68426 16.2587C6.82951 16.3365 6.99175 16.3773 7.15654 16.3773H9.08498C9.24978 16.3773 9.41201 16.3365 9.55726 16.2587C9.7025 16.1808 9.82625 16.0683 9.91748 15.931L10.4515 15.1282C10.5606 14.9645 10.6188 14.7722 10.619 14.5754L10.6203 13.377H5.62092L5.62248 14.5754ZM2.62061 5.87698C2.62061 7.26354 3.13467 8.52854 3.98186 9.4951C4.49811 10.0842 5.30561 11.3148 5.61342 12.3529C5.61467 12.361 5.61561 12.3692 5.61686 12.3773H10.6244C10.6256 12.3692 10.6265 12.3614 10.6278 12.3529C10.9356 11.3148 11.7431 10.0842 12.2594 9.4951C13.1065 8.52854 13.6206 7.26354 13.6206 5.87698C13.6206 2.83354 11.149 0.367605 8.10342 0.37698C4.91561 0.386667 2.62061 2.96979 2.62061 5.87698ZM8.12061 3.37698C6.74217 3.37698 5.62061 4.49854 5.62061 5.87698C5.62061 6.15323 5.39686 6.37698 5.12061 6.37698C4.84436 6.37698 4.62061 6.15323 4.62061 5.87698C4.62061 3.94698 6.19061 2.37698 8.12061 2.37698C8.39686 2.37698 8.62061 2.60073 8.62061 2.87698C8.62061 3.15323 8.39686 3.37698 8.12061 3.37698Z" fill="#9FA2B4"/>
</g>
<defs>
<clipPath id="clip0_311_1330">
<rect width="16" height="16" fill="white" transform="translate(0.120605 0.376953)"/>
</clipPath>
</defs>
</svg>
