<svg width="17" height="17" viewBox="0 0 17 17" fill="none" xmlns="http://www.w3.org/2000/svg">
<path opacity="0.4" d="M15.6438 9.31811H8.66467L13.3126 13.966C13.4903 14.1437 13.7826 14.1581 13.9653 13.986C15.1035 12.9137 15.8864 11.4681 16.1161 9.84311C16.1555 9.56488 15.9247 9.31811 15.6438 9.31811ZM15.1782 7.41224C14.9358 3.89871 12.1282 1.09107 8.61467 0.84872C8.34643 0.83019 8.12055 1.05637 8.12055 1.32519V7.90635H14.702C14.9708 7.90635 15.1967 7.68047 15.1782 7.41224ZM6.70878 9.31811V2.33901C6.70878 2.05813 6.46202 1.82725 6.18408 1.86666C2.67908 2.36195 -4.05386e-05 5.424 0.124665 9.0937C0.252901 12.8625 3.4979 15.9531 7.26849 15.9057C8.75084 15.8872 10.1205 15.4096 11.2467 14.6108C11.4791 14.446 11.4944 14.104 11.2929 13.9025L6.70878 9.31811Z" fill="#9FA2B4"/>
</svg>
