<svg width="17" height="17" viewBox="0 0 17 17" fill="none" xmlns="http://www.w3.org/2000/svg">
<g clip-path="url(#clip0_311_1346)">
<path opacity="0.4" d="M15.3519 10.2434L14.0206 9.47464C14.155 8.74964 14.155 8.00589 14.0206 7.28089L15.3519 6.51214C15.505 6.42464 15.5737 6.24339 15.5237 6.07464C15.1769 4.96214 14.5862 3.95589 13.8144 3.11839C13.6956 2.99026 13.5019 2.95901 13.3519 3.04651L12.0206 3.81526C11.4612 3.33401 10.8175 2.96214 10.1206 2.71839V1.18401C10.1206 1.00901 9.99875 0.855889 9.82687 0.818389C8.68 0.562139 7.505 0.574639 6.41437 0.818389C6.2425 0.855889 6.12062 1.00901 6.12062 1.18401V2.72151C5.42687 2.96839 4.78312 3.34026 4.22062 3.81839L2.8925 3.04964C2.73937 2.96214 2.54875 2.99026 2.43 3.12151C1.65813 3.95589 1.0675 4.96214 0.720626 6.07776C0.667501 6.24651 0.739376 6.42776 0.892501 6.51526L2.22375 7.28401C2.08938 8.00901 2.08938 8.75276 2.22375 9.47776L0.892501 10.2465C0.739376 10.334 0.670626 10.5153 0.720626 10.684C1.0675 11.7965 1.65813 12.8028 2.43 13.6403C2.54875 13.7684 2.7425 13.7996 2.8925 13.7121L4.22375 12.9434C4.78312 13.4246 5.42687 13.7965 6.12375 14.0403V15.5778C6.12375 15.7528 6.24562 15.9059 6.4175 15.9434C7.56437 16.1996 8.73937 16.1871 9.83 15.9434C10.0019 15.9059 10.1237 15.7528 10.1237 15.5778V14.0403C10.8175 13.7934 11.4612 13.4215 12.0237 12.9434L13.355 13.7121C13.5081 13.7996 13.6987 13.7715 13.8175 13.6403C14.5894 12.8059 15.18 11.7996 15.5269 10.684C15.5737 10.5121 15.505 10.3309 15.3519 10.2434ZM8.12062 10.8778C6.7425 10.8778 5.62062 9.75589 5.62062 8.37776C5.62062 6.99964 6.7425 5.87776 8.12062 5.87776C9.49875 5.87776 10.6206 6.99964 10.6206 8.37776C10.6206 9.75589 9.49875 10.8778 8.12062 10.8778Z" fill="#9FA2B4"/>
</g>
<defs>
<clipPath id="clip0_311_1346">
<rect width="16" height="16" fill="white" transform="translate(0.120605 0.376953)"/>
</clipPath>
</defs>
</svg>
