<svg width="17" height="17" viewBox="0 0 17 17" fill="none" xmlns="http://www.w3.org/2000/svg">
<g clip-path="url(#clip0_311_1350)">
<path opacity="0.4" d="M5.15567 11.7094C4.8841 11.4378 5.02567 11.5144 4.37067 11.3391C4.07348 11.2594 3.81223 11.1063 3.57598 10.9228L2.15817 14.3991C2.02098 14.7356 2.27723 15.1013 2.64035 15.0875L4.28692 15.0247L5.41942 16.221C5.66942 16.4847 6.10817 16.4025 6.24535 16.066L7.87192 12.0778C7.53317 12.2666 7.15723 12.3772 6.76848 12.3772C6.1591 12.3772 5.5866 12.14 5.15567 11.7094ZM14.0832 14.3991L12.6654 10.9228C12.4291 11.1066 12.1679 11.2594 11.8707 11.3391C11.2122 11.5153 11.3566 11.4385 11.0857 11.7094C10.6547 12.14 10.0819 12.3772 9.47254 12.3772C9.08379 12.3772 8.70785 12.2663 8.3691 12.0778L9.99567 16.066C10.1329 16.4025 10.5719 16.4847 10.8216 16.221L11.9544 15.0247L13.601 15.0875C13.9641 15.1013 14.2204 14.7353 14.0832 14.3991ZM10.3394 11.0022C10.8169 10.5163 10.8716 10.5581 11.5516 10.3728C11.9857 10.2544 12.325 9.90908 12.4413 9.46721C12.675 8.57971 12.6144 8.68689 13.2522 8.03752C13.57 7.71408 13.6941 7.24252 13.5779 6.80064C13.3444 5.91377 13.3441 6.03752 13.5779 5.1497C13.6941 4.70783 13.57 4.23627 13.2522 3.91283C12.6144 3.26346 12.675 3.37033 12.4413 2.48314C12.325 2.04127 11.9857 1.69596 11.5516 1.57752C10.6804 1.33971 10.7854 1.40189 10.1469 0.752205C9.8291 0.428768 9.36567 0.302205 8.9316 0.420643C8.06067 0.658143 8.18223 0.658455 7.30973 0.420643C6.87567 0.302205 6.41223 0.428455 6.09442 0.752205C5.4566 1.40158 5.5616 1.33971 4.69004 1.57752C4.25598 1.69596 3.9166 2.04127 3.80035 2.48314C3.56692 3.37033 3.62723 3.26346 2.98942 3.91283C2.6716 4.23627 2.54723 4.70783 2.66379 5.1497C2.89723 6.03595 2.89754 5.9122 2.66379 6.80033C2.54754 7.2422 2.6716 7.71377 2.98942 8.03752C3.62723 8.68689 3.5666 8.57971 3.80035 9.46721C3.9166 9.90908 4.25598 10.2544 4.69004 10.3728C5.38942 10.5635 5.4416 10.5335 5.90192 11.0022C6.31535 11.4231 6.95942 11.4985 7.45629 11.1841C7.65498 11.0579 7.88547 10.991 8.12082 10.991C8.35617 10.991 8.58666 11.0579 8.78535 11.1841C9.28192 11.4985 9.92598 11.4231 10.3394 11.0022ZM5.17254 5.87596C5.17254 4.21877 6.49254 2.87533 8.12067 2.87533C9.74879 2.87533 11.0688 4.21877 11.0688 5.87596C11.0688 7.53314 9.74879 8.87658 8.12067 8.87658C6.49254 8.87658 5.17254 7.53314 5.17254 5.87596Z" fill="#9FA2B4"/>
</g>
<defs>
<clipPath id="clip0_311_1350">
<rect width="16" height="16" fill="white" transform="translate(0.120605 0.376953)"/>
</clipPath>
</defs>
</svg>
