<svg width="17" height="17" viewBox="0 0 17 17" fill="none" xmlns="http://www.w3.org/2000/svg">
<g clip-path="url(#clip0_311_1326)">
<path d="M3.67616 5.70964H12.5651V11.043H3.67616V5.70964ZM14.7873 8.3763C14.7873 9.11269 15.3842 9.70964 16.1206 9.70964V12.3763C16.1206 13.1127 15.5237 13.7096 14.7873 13.7096H1.45394C0.71755 13.7096 0.120605 13.1127 0.120605 12.3763V9.70964C0.856994 9.70964 1.45394 9.11269 1.45394 8.3763C1.45394 7.63991 0.856994 7.04297 0.120605 7.04297V4.3763C0.120605 3.63991 0.71755 3.04297 1.45394 3.04297H14.7873C15.5237 3.04297 16.1206 3.63991 16.1206 4.3763V7.04297C15.3842 7.04297 14.7873 7.63991 14.7873 8.3763ZM13.4539 5.48741C13.4539 5.11922 13.1555 4.82075 12.7873 4.82075H3.45394C3.08574 4.82075 2.78727 5.11922 2.78727 5.48741V11.2652C2.78727 11.6334 3.08574 11.9319 3.45394 11.9319H12.7873C13.1555 11.9319 13.4539 11.6334 13.4539 11.2652V5.48741Z" fill="#DDE2FF"/>
</g>
<defs>
<clipPath id="clip0_311_1326">
<rect width="16" height="16" fill="white" transform="translate(0.120605 0.376953)"/>
</clipPath>
</defs>
</svg>
